<svg id="Layer_1" data-name="Layer 1" xmlns="http://www.w3.org/2000/svg" viewBox="0 0 1017.91 451.67"><defs><style>.cls-1{fill:#fff;}.cls-1,.cls-2,.cls-3{stroke:#000;stroke-linecap:round;stroke-linejoin:round;stroke-width:0.71px;}.cls-2{fill:none;}.cls-4{fill:#424242;}.cls-5{fill:#e11f26;}</style></defs><g id="SPLINE"><path class="cls-1" d="M170.7,284.4c23.83.42,47.6-2.37,71.4-2.69a308.18,308.18,0,0,1,46,2.69c14.78,2,29.48,5.21,43.21,11,20.83,8.71,39.46,23.26,51.22,42.82C359.13,322.9,333.05,312.52,306,306A201.6,201.6,0,0,0,278.26,301a278.55,278.55,0,0,0-31.8-.82c-9.34.15-18.66.4-28-.41C201.69,298.34,185,293.43,170.7,284.4Z" transform="translate(0)"/></g><g id="SPLINE-2" data-name="SPLINE"><path class="cls-1" d="M147.59,270.52c13.32,1.31,26.1-2.35,38.69-6.24,8.32-2.56,16.54-5.22,24.87-7.73a186.2,186.2,0,0,1,22.77-5.69,115.15,115.15,0,0,1,14.9-1.48c5.63-.2,11.36,0,16.68,1.56,8.94,2.69,16.72,9.44,22.61,16.36-12.67-2-25.58-4.18-38.48-4-4.81.07-9.62.47-14.41,1q-7.46.81-14.87,1.93c-5.63.84-11.26,1.79-16.87,2.79-6.86,1.22-13.7,2.53-20.63,3.39C171.08,273.86,159.05,274.06,147.59,270.52Z" transform="translate(0)"/></g><g id="SPLINE-3" data-name="SPLINE"><path class="cls-1" d="M225.76,2.89c6.71,5.9,14.05,11.89,19.16,19.35a97.47,97.47,0,0,1,6.16,11,59.48,59.48,0,0,1,4.73,10.94,49.18,49.18,0,0,1,1.42,10.95A47.49,47.49,0,0,1,256.75,66,51.65,51.65,0,0,1,253,77a99.45,99.45,0,0,1-5.44,10.94,78,78,0,0,1-8.05,10.94,132.66,132.66,0,0,1-10.65,11c-4.11,3.8-8.41,7.4-12.77,10.94-6.57,5.34-13.28,10.58-21.06,14,.36,6.43-1,12.73-2.71,18.89-1,3.7-2.23,7.35-3.61,10.94-2.66,6.94-6,13.66-11,19.31a137,137,0,0,0,34.63-19.31c4.42-3.42,8.6-7.15,12.72-10.94,3.81-3.52,7.57-7.09,11-11,3.12-3.5,6-7.23,8.84-10.94s5.56-7.17,8.05-11a124.66,124.66,0,0,0,6.31-10.94,119.61,119.61,0,0,0,5.11-11A109.27,109.27,0,0,0,268,87.91c1-3.62,1.9-7.26,2.61-10.94a69.85,69.85,0,0,0,1.35-11,57.33,57.33,0,0,0-.72-10.94,55.59,55.59,0,0,0-2.83-10.95,57.45,57.45,0,0,0-5.63-10.94,83.62,83.62,0,0,0-8.54-10.95C246.39,13.69,237,6.48,225.76,2.89Z" transform="translate(0)"/></g><g id="SPLINE-4" data-name="SPLINE"><path class="cls-1" d="M144.48,137.58c3.89-9,6.07-18.37,8.33-27.78.87-3.64,1.76-7.27,2.43-11s1.13-7.28,1.62-10.94A94,94,0,0,0,157.94,77a73.27,73.27,0,0,0-.81-11c-.48-3.68-1-7.34-1.89-10.94a65.56,65.56,0,0,0-3.51-10.95,68.49,68.49,0,0,0-5.94-10.94,65.77,65.77,0,0,0-8.92-10.95C120.26,6.07,93.4.93,71.84.35,88.17,5.17,105.18,11,118.43,22.24a42.85,42.85,0,0,1,9.53,11,49.72,49.72,0,0,1,4.34,10.94,70.38,70.38,0,0,1,2.38,10.95A62.42,62.42,0,0,1,135,66c-.21,3.67-.66,7.31-1.19,11s-1.15,7.33-2,10.94-2,7.32-3.06,10.94-2.27,7.33-3.51,11-2.62,7.3-4,10.94-2.69,7.28-4,11-2.51,7.31-3.84,10.94-2.8,7.28-4.13,11-2.5,7.28-3.7,10.94-2.39,7.29-3.57,10.94-2.32,7.25-3.17,10.95-1.37,7.27-1.86,10.94-.91,7.29-1.06,11a88.88,88.88,0,0,0,.29,10.94,56.86,56.86,0,0,0,1.87,10.95,50,50,0,0,0,4.82,10.94c6.06,10.49,14.85,19.32,26.38,24.11C128,256.59,131,248.53,135,241.13a116.58,116.58,0,0,1,6.72-10.94,103.17,103.17,0,0,1,8.44-10.95,113.53,113.53,0,0,1,11.62-10.94c5.67-4.77,11.54-9.3,16-15.25a90.41,90.41,0,0,1-27.62,9.55c5-5.35,10.62-10.35,15.11-16.19a130.68,130.68,0,0,0,7.27-10.95c2.26-3.6,4.55-7.17,6.48-10.94a71.35,71.35,0,0,0,4.63-11.39c1.07-3.45,1.9-7,2.68-10.5s1.53-7.26,2-10.94c1-8.78.3-17.78-1-26.46-1.16,5.14-1.87,10.35-2.92,15.51a82.32,82.32,0,0,1-3,11,111,111,0,0,1-4.72,10.94c-3.73,7.77-7.69,15.48-14.87,20.8,3.05-6.88,6.47-13.68,9-20.8,1.27-3.6,2.3-7.27,3.37-10.94s2.14-7.26,3-11,1.39-7.27,1.93-10.94,1.07-7.28,1.38-11,.38-7.28.39-10.94A99.65,99.65,0,0,0,180.32,77a77,77,0,0,0-2-11c-1-3.7-2.13-7.34-3.42-10.94-3.22-9-7.18-17.77-14.3-24.56,2.66,8.06,6,16.14,7.51,24.56A93,93,0,0,1,169.33,66c.24,3.65.38,7.3.36,11s-.2,7.29-.54,10.94a64.83,64.83,0,0,1-1.78,10.94,61.42,61.42,0,0,1-4.29,11C158.12,119.84,151.54,128.93,144.48,137.58Z" transform="translate(0)"/></g><g id="SPLINE-5" data-name="SPLINE"><path class="cls-1" d="M271.94,151.06c-4.12,3.38-7.32,7.64-10.88,11.56a67.27,67.27,0,0,1-5.66,5.54c-2,1.73-4.05,3.38-6.11,5s-4.09,3.32-6.13,5-4.08,3.34-6.25,4.84a36.33,36.33,0,0,1-6.9,3.83,23.67,23.67,0,0,1-7.68,1.75c4.34-3.65,9.17-6.74,13.64-10.23a66.86,66.86,0,0,0,6.37-5.64c2-2,3.88-4.17,5.73-6.36,3.7-4.39,7.34-8.83,10.65-13.49,1.66-2.33,3.23-4.72,4.78-7.12s3.09-4.83,4.58-7.27,2.93-4.94,4.2-7.48,2.41-5.13,3.48-7.74c2.13-5.23,4.07-10.53,5.78-15.91a132,132,0,0,0,4.2-16.47,68.9,68.9,0,0,0,1.12-17,89,89,0,0,1-8.12,24A118.33,118.33,0,0,1,272.46,109c-2.31,3.6-4.8,7-7.23,10.53S260.47,126.6,258,130s-5.22,6.68-8,9.86-5.61,6.36-8.52,9.46-6,6-9.18,8.9-6.47,5.64-9.69,8.48-6.43,5.7-9.78,8.39-6.86,5.21-10.27,7.84c-1.7,1.32-3.37,2.67-5,4.08s-3.18,2.89-4.74,4.36-3.12,3-4.72,4.39-3.25,2.8-4.94,4.13c-3.39,2.66-6.89,5.18-10.16,8-6.54,5.57-12.05,12.29-17.72,18.84a196,196,0,0,0,38.31,3.07,175.86,175.86,0,0,0,38-4.81,124.05,124.05,0,0,1-35.07-6.35,125.58,125.58,0,0,0,23.74-10.73q5.61-3.25,10.94-7c3.56-2.49,7-5.12,10.42-7.93a102.09,102.09,0,0,0,9.5-9A110.51,110.51,0,0,0,259.33,174a106.56,106.56,0,0,0,7.06-11A90.38,90.38,0,0,0,271.94,151.06Z" transform="translate(0)"/></g><g id="SPLINE-6" data-name="SPLINE"><path class="cls-1" d="M182.85,239.68a79.76,79.76,0,0,1-28.66-1.14c-5.61,5.61-11.28,12.91-9.71,21.2,11.53,3.1,23.25,1.11,34.49-2,5-1.38,9.93-3,14.86-4.57,4.13-1.34,8.26-2.68,12.46-3.82a153.89,153.89,0,0,1,27.63-4.69,89.3,89.3,0,0,0-37.42-1.18c-9.08,1.72-17.91,5-27.35,2.91A43.56,43.56,0,0,0,182.85,239.68Z" transform="translate(0)"/></g><g id="SPLINE-7" data-name="SPLINE"><path class="cls-1" d="M86.1,226.74c4.19,12.57,11.86,23.32,20.7,33a127.29,127.29,0,0,0,18.4,16.81c11,8.12,23.62,14,36.53,18.8,15.62,5.77,31.7,9.82,47.76,13.83,14.56,3.64,29.11,7.24,43.48,11.82,11.6,3.69,23.09,8,33.26,14.76,16.95,11.21,30.26,29.07,29.67,50.62-9.29-19.08-26.11-33.44-45.31-41.64a133.34,133.34,0,0,0-27.54-8,283.91,283.91,0,0,0-36.76-4.2c-14.88-.85-29.78-1-44.56-3.55-13.4-2.32-26.71-6.62-37.95-14.2A81.43,81.43,0,0,1,98.07,286C88.37,267.93,85.34,246.88,86.1,226.74Z" transform="translate(0)"/></g><g id="SPLINE-8" data-name="SPLINE"><path class="cls-1" d="M442.2,451.32c-11.31-37.87-42.14-55.46-72.52-72.83a301.05,301.05,0,0,1-25.63-15.8c-9.59-6.82-18.42-14.79-28.15-21.42-2.81-1.91-5.68-3.71-8.56-5.51-15.7-9.84-31.42-19.85-49.51-24.7,20,.23,40.3,2.73,59.3,9.23a167.32,167.32,0,0,1,36.3,17.88,231.27,231.27,0,0,1,31.37,24.52,311.93,311.93,0,0,1,24.63,25.59C425.19,406.53,439.42,426.69,442.2,451.32Z" transform="translate(0)"/></g><g id="ARC"><path class="cls-1" d="M81.77,120.78a17.13,17.13,0,0,0-9.93,3.88,9.4,9.4,0,0,1,2.21-10.15,19.67,19.67,0,0,0-10.72,7.55A73.7,73.7,0,0,1,75.68,85.33,85.85,85.85,0,0,0,33,161a18.72,18.72,0,0,1,3-6.34A18.34,18.34,0,0,1,41.27,150a21.7,21.7,0,0,1,9.2-3,22.11,22.11,0,0,1,10.59,1.67,32.1,32.1,0,0,1,7.83,5.14A35.71,35.71,0,0,1,75.68,161c3,4.49,4.46,10.06,4.94,15.56,1.1,12.32-2.54,24.34,5.74,35.78a121.41,121.41,0,0,1,4.48-40.62c2.81-10,6.79-19.72,10.33-29.51a48,48,0,0,0-21.79-15.13c-.06-.13-.12-.26-.17-.39A4.55,4.55,0,0,1,81.77,120.78Z" transform="translate(0)"/></g><g id="ARC-2" data-name="ARC"><path class="cls-2" d="M70.86,181.47a19.24,19.24,0,0,0-18.59-24.14,12.64,12.64,0,0,0-2.54,25A43.7,43.7,0,0,0,70.86,181.47Z" transform="translate(0)"/></g><g id="ARC-3" data-name="ARC"><path class="cls-3" d="M60,167.64c0,.18.1.36.14.54a8.07,8.07,0,1,1-9.66-6.07,5.54,5.54,0,0,0,8.9,6.6A6.34,6.34,0,0,0,60,167.64Z" transform="translate(0)"/></g><g id="ARC-4" data-name="ARC"><path class="cls-3" d="M36,190.76a30.92,30.92,0,0,1-17.7,2.64,17.75,17.75,0,0,0,23.15,9.69c.34-.14.69-.3,1-.46A11.32,11.32,0,0,0,36,190.76Z" transform="translate(0)"/></g><g id="ARC-5" data-name="ARC"><path class="cls-3" d="M32,185.75a44.42,44.42,0,0,1-4.22-41.56,35.62,35.62,0,0,0-15.32,61.4A15.28,15.28,0,0,1,32,185.75Z" transform="translate(0)"/></g><path class="cls-4" d="M371.5,105.47h50.8q15.06,0,22.82,8.54t5,24a42.11,42.11,0,0,1-12.34,23.15q-10,9.85-27,9.85H375.33l-8.47,48H351.48Zm56.9,15.61q-4.65-2.4-13.47-2.4H384.55L377.61,158H408q10.28,0,17.46-4.41t9.15-15.53Q436.81,125.55,428.4,121.08Z" transform="translate(0)"/><path class="cls-4" d="M506.92,168.9c3.26-.41,5.64-1.75,7.12-4a14.11,14.11,0,0,0,1.87-5.35q1.26-7.14-3.23-10.36T498.79,146q-10.87,0-16.47,5.9-3.12,3.27-5,9.71h-13q3.09-15.34,13.69-21.35a46.19,46.19,0,0,1,23.17-6q14.58,0,22.71,5.56t6,17.31l-8.41,47.68a5.6,5.6,0,0,0,.28,3.48c.44.87,1.61,1.31,3.52,1.31.62,0,1.32,0,2.1-.11s1.63-.2,2.54-.35l-1.81,10.28a44.17,44.17,0,0,1-5.16,1.16,37.94,37.94,0,0,1-4.67.23q-7.18,0-9.54-5.1a17.59,17.59,0,0,1-1-7.65,45.46,45.46,0,0,1-13.92,9.66,42.25,42.25,0,0,1-18.26,4.09q-11.52,0-17.59-7t-4.22-17.49q2-11.49,10.33-17.82a41,41,0,0,1,20.24-7.8ZM471,206.48a14,14,0,0,0,9.82,3.47,35.57,35.57,0,0,0,14.82-3.4q12.58-5.62,14.84-18.44l2-11.18a28.35,28.35,0,0,1-7,2.71,61.74,61.74,0,0,1-8.14,1.55l-8.6,1.08q-7.73,1-11.92,3.16A15.29,15.29,0,0,0,468.27,197C467.56,201,468.47,204.17,471,206.48Z" transform="translate(0)"/><path class="cls-4" d="M556.72,136.22h13.22l-2.52,14.3q2.36-4.17,9.75-10.16t15.66-6c.26,0,.69,0,1.3.08s1.65.15,3.12.31l-2.59,14.68a18,18,0,0,0-2.23-.31c-.69,0-1.44-.08-2.26-.08q-10.51,0-17.35,6.76a28.54,28.54,0,0,0-8.39,15.58L556,219H542.13Z" transform="translate(0)"/><path class="cls-4" d="M609.43,136.22h13.21l-2.52,14.3q2.36-4.17,9.75-10.16t15.67-6c.25,0,.69,0,1.3.08s1.64.15,3.11.31l-2.59,14.68a18,18,0,0,0-2.23-.31c-.68,0-1.44-.08-2.26-.08q-10.51,0-17.34,6.76a28.47,28.47,0,0,0-8.39,15.58l-8.4,47.6H594.83Z" transform="translate(0)"/><path class="cls-4" d="M720.26,144.48q9.09,10.67,5.44,31.35-3.53,20-15.49,33T677.9,221.93q-16.95,0-24.9-11.55t-4.5-31q3.68-20.85,16.36-33.2a42.09,42.09,0,0,1,30.42-12.35Q711.17,133.83,720.26,144.48Zm-18.34,55a60.79,60.79,0,0,0,9.19-23.27q2-11.58-.35-18.83Q707,146,692.75,146q-12.6,0-20,9.73a53.15,53.15,0,0,0-9.87,23.46q-2.33,13.2,1.85,22t16.64,8.8Q695,210,701.92,199.49Z" transform="translate(0)"/><path class="cls-4" d="M756.62,113.12h14.07l-4.08,23.1h13.22l-2,11.36H764.61l-9.52,54c-.51,2.89.12,4.82,1.91,5.8,1,.57,2.74.85,5.26.85.67,0,1.39,0,2.17-.05s1.7-.12,2.75-.26L765.23,219a35.14,35.14,0,0,1-5.16,1,50.22,50.22,0,0,1-5.65.3q-9.75,0-12.34-5t-1.2-12.94l9.66-54.8h-11.2l2-11.36h11.21Z" transform="translate(0)"/><path class="cls-4" d="M826.92,211.22Q820,200.45,822.7,185h14.53q-1,10.74,1.26,15.61,3.87,8.73,18,8.73,11,0,18.66-5.87a23.69,23.69,0,0,0,9.31-15.15q2-11.43-4.17-16t-18.63-4.56c-.93,0-1.87,0-2.83,0l-2.92.12,2.17-12.29c1.41.16,2.61.26,3.58.31s2,.08,3.15.08a32,32,0,0,0,13.27-2.48q9.57-4.32,11.53-15.45,1.46-8.27-3.62-12.75a18.77,18.77,0,0,0-12.89-4.48q-13.9,0-20.88,9.27-3.84,5.1-5.88,14.53H832.59a48.64,48.64,0,0,1,8.65-21q11.24-15.47,32.64-15.46,16.92,0,24.87,7.54t5.42,21.83a28.24,28.24,0,0,1-18.3,22.72q8.31,2.4,12,9.23t2,16.73a41.58,41.58,0,0,1-15,25.81q-12.2,10-31.35,10Q833.87,222,826.92,211.22Z" transform="translate(0)"/><path class="cls-4" d="M933.7,105.47h45.38q23.1,0,32.91,16.61,8.71,15,4.59,38.41a89.23,89.23,0,0,1-12.47,32.69Q987.73,219,958.91,219H913.69Zm24.66,100.38a43.66,43.66,0,0,0,12.83-1.62,35.4,35.4,0,0,0,16.4-11.59A58.69,58.69,0,0,0,997.12,175a74.78,74.78,0,0,0,3.23-11.9q3.72-21.1-2.42-32.77t-24.35-11.67H946.91l-15.37,87.17Z" transform="translate(0)"/><path class="cls-5" d="M363.1,242.73h21.06a18.8,18.8,0,0,1,8.31,1.55q5.88,3,4.48,10.94A14.43,14.43,0,0,1,394,262a16.07,16.07,0,0,1-5.56,4.25A7.39,7.39,0,0,1,392,269.2q1.05,1.8.5,5.83l-.87,6.22a18.71,18.71,0,0,0-.26,3.94c.12,1.47.63,2.42,1.52,2.84l-.18,1h-7.7a5,5,0,0,1-.23-1.55,27.7,27.7,0,0,1,.33-3.66l1-7.72q.58-4.54-2.2-6.09a12.14,12.14,0,0,0-5.34-.85H364.71l-3.5,19.87h-6.28ZM379.74,264a13.13,13.13,0,0,0,7.11-1.77c1.87-1.17,3.08-3.3,3.62-6.37.58-3.3-.18-5.55-2.3-6.75a10.13,10.13,0,0,0-4.84-.94H368.42L365.63,264Z" transform="translate(0)"/><path class="cls-5" d="M426.72,256.22a9.83,9.83,0,0,1,4.34,4.37,13.17,13.17,0,0,1,1.21,6,39.62,39.62,0,0,1-.81,7.44H406.89c-.5,3.44-.19,6.2.95,8.27s3.28,3.12,6.43,3.12a10.66,10.66,0,0,0,7.56-2.95,12.62,12.62,0,0,0,2.78-4h5.59a14.41,14.41,0,0,1-2.2,4.15,19.66,19.66,0,0,1-3.44,3.74,16.21,16.21,0,0,1-7,3.4,20.06,20.06,0,0,1-4.69.51,11.69,11.69,0,0,1-9.81-4.59q-3.56-4.59-2.09-12.86a23.29,23.29,0,0,1,6.72-13.21,17.25,17.25,0,0,1,12.36-5.08A13.4,13.4,0,0,1,426.72,256.22Zm-.3,13.26a13.44,13.44,0,0,0-.56-5.9q-1.59-4.09-7-4.1a10.19,10.19,0,0,0-7,2.82,13.08,13.08,0,0,0-4.05,7.18Z" transform="translate(0)"/><path class="cls-5" d="M444.32,242.73H450l-8.17,46.34h-5.68Z" transform="translate(0)"/><path class="cls-5" d="M456.27,255.44H462l-5.92,33.63h-5.78Zm2.24-12.71h5.78l-1.14,6.44h-5.77Z" transform="translate(0)"/><path class="cls-5" d="M486.41,268.62a3.8,3.8,0,0,0,2.9-1.63,5.84,5.84,0,0,0,.77-2.19q.51-2.91-1.32-4.22t-5.67-1.32q-4.44,0-6.72,2.41a9.66,9.66,0,0,0-2.05,4H469q1.26-6.25,5.58-8.71a18.8,18.8,0,0,1,9.46-2.45c4,0,7.06.75,9.27,2.27s3,3.87,2.44,7.06l-3.43,19.47a2.27,2.27,0,0,0,.11,1.41q.27.54,1.44.54c.25,0,.54,0,.86-.05s.66-.08,1-.14l-.74,4.2a17.24,17.24,0,0,1-2.1.47,15.9,15.9,0,0,1-1.91.09c-1.95,0-3.25-.69-3.89-2.08a7.28,7.28,0,0,1-.43-3.12,18.4,18.4,0,0,1-5.68,3.94,17.15,17.15,0,0,1-7.45,1.67c-3.13,0-5.53-.95-7.18-2.85a8.17,8.17,0,0,1-1.72-7.13,11.19,11.19,0,0,1,4.22-7.28,16.72,16.72,0,0,1,8.25-3.18ZM471.75,284a5.68,5.68,0,0,0,4,1.42A14.43,14.43,0,0,0,481.8,284a9.73,9.73,0,0,0,6.06-7.52l.81-4.57A11.94,11.94,0,0,1,485.8,273a26.57,26.57,0,0,1-3.33.63l-3.51.44a15,15,0,0,0-4.86,1.29,6.26,6.26,0,0,0-3.47,4.72A3.94,3.94,0,0,0,471.75,284Z" transform="translate(0)"/><path class="cls-5" d="M508.35,242.58h5.52l-3,16.81a16.23,16.23,0,0,1,5.12-3.71,14.1,14.1,0,0,1,5.86-1.28c4.22,0,7.4,1.45,9.51,4.34s2.68,7.16,1.69,12.79a25.93,25.93,0,0,1-6.24,13.31,15.3,15.3,0,0,1-11.73,5.3,9.66,9.66,0,0,1-6.2-1.86,12.29,12.29,0,0,1-2.76-3.53l-.76,4.32h-5.24Zm14.85,38.89a21,21,0,0,0,4-9.66c.62-3.55.38-6.49-.74-8.83s-3.17-3.5-6.14-3.5a11.26,11.26,0,0,0-7.33,2.87q-3.44,2.88-4.59,9.46a19.94,19.94,0,0,0-.16,7.73q1.26,5.58,7.4,5.59A9.26,9.26,0,0,0,523.2,281.47Z" transform="translate(0)"/><path class="cls-5" d="M544.88,242.73h5.67l-8.17,46.34h-5.67Z" transform="translate(0)"/><path class="cls-5" d="M577.56,256.22a9.88,9.88,0,0,1,4.34,4.37,13,13,0,0,1,1.2,6,38.78,38.78,0,0,1-.81,7.44H557.72q-.75,5.16.95,8.27t6.43,3.12a10.68,10.68,0,0,0,7.57-2.95,12.62,12.62,0,0,0,2.78-4H581a14.17,14.17,0,0,1-2.2,4.15,19.34,19.34,0,0,1-3.44,3.74,16.12,16.12,0,0,1-6.95,3.4,20.12,20.12,0,0,1-4.69.51,11.73,11.73,0,0,1-9.82-4.59q-3.54-4.59-2.09-12.86a23.41,23.41,0,0,1,6.72-13.21,17.27,17.27,0,0,1,12.37-5.08A13.46,13.46,0,0,1,577.56,256.22Zm-.31,13.26a13.46,13.46,0,0,0-.55-5.9c-1.06-2.73-3.4-4.1-7-4.1a10.21,10.21,0,0,0-7,2.82,13.14,13.14,0,0,0-4.05,7.18Z" transform="translate(0)"/><path class="cls-5" d="M606.33,285.9c-1.89-2.94-2.47-6.5-1.73-10.71h5.93c-.26,2.92-.09,5.05.52,6.37q1.58,3.57,7.35,3.57a12.17,12.17,0,0,0,7.62-2.4,9.69,9.69,0,0,0,3.8-6.18c.55-3.12,0-5.29-1.7-6.53s-4.22-1.86-7.61-1.86h-1.15l-1.19.05.88-5c.58.07,1.06.11,1.46.13s.83,0,1.29,0a12.93,12.93,0,0,0,5.41-1,8,8,0,0,0,4.71-6.31,5.24,5.24,0,0,0-1.48-5.2,7.66,7.66,0,0,0-5.26-1.83c-3.78,0-6.63,1.26-8.52,3.78a15.27,15.27,0,0,0-2.4,5.93h-5.62a19.89,19.89,0,0,1,3.53-8.57q4.59-6.32,13.32-6.31,6.91,0,10.15,3.07c2.17,2.05,2.9,5,2.22,8.91a11.56,11.56,0,0,1-7.47,9.28,7.69,7.69,0,0,1,4.9,3.77,10.28,10.28,0,0,1,.8,6.82A17,17,0,0,1,630,286.23q-5,4.06-12.8,4.07Q609.16,290.3,606.33,285.9Z" transform="translate(0)"/><path class="cls-5" d="M649.91,242.73h18.52q9.44,0,13.44,6.78,3.55,6.12,1.87,15.68a36.31,36.31,0,0,1-5.09,13.34Q672,289.08,660.2,289.07H641.74Zm10.07,41a17.45,17.45,0,0,0,5.23-.67,14.45,14.45,0,0,0,6.7-4.73,24,24,0,0,0,3.89-7.19,31.85,31.85,0,0,0,1.32-4.86q1.51-8.61-1-13.37t-9.94-4.76H655.3L649,283.71Z" transform="translate(0)"/><path class="cls-5" d="M714.83,242.73h20.73q6.15,0,9.32,3.49t2,9.79a17.21,17.21,0,0,1-5,9.45q-4.08,4-11,4H716.39l-3.46,19.59h-6.27Zm23.22,6.37a12.34,12.34,0,0,0-5.5-1h-12.4l-2.83,16.05h12.4a13.36,13.36,0,0,0,7.13-1.8c1.95-1.2,3.2-3.31,3.73-6.34C741.18,252.64,740.34,250.32,738.05,249.1Z" transform="translate(0)"/><path class="cls-5" d="M754.5,255.29h5.39l-1,5.83a16.59,16.59,0,0,1,4-4.15,10,10,0,0,1,6.39-2.44l.53,0,1.27.13-1.06,6c-.32-.06-.62-.1-.9-.13s-.59,0-.93,0a9.65,9.65,0,0,0-7.08,2.76,11.62,11.62,0,0,0-3.42,6.36l-3.43,19.43h-5.68Z" transform="translate(0)"/><path class="cls-5" d="M775.83,255.44h5.77l-5.93,33.63H769.9Zm2.24-12.71h5.77l-1.13,6.44h-5.78Z" transform="translate(0)"/><path class="cls-5" d="M790.21,255.29h5.39l-.85,4.79a19.42,19.42,0,0,1,5.83-4.26,15.13,15.13,0,0,1,6.19-1.29q7.2,0,8.83,5,.92,2.74,0,7.86l-3.82,21.67H806l3.76-21.29a11,11,0,0,0,0-5q-1-3.15-4.93-3.15a12,12,0,0,0-3.38.41,10.71,10.71,0,0,0-4.59,2.78,10.33,10.33,0,0,0-2.46,3.45,25.89,25.89,0,0,0-1.32,5.09l-3.12,17.7h-5.68Z" transform="translate(0)"/><path class="cls-5" d="M828.93,245.86h5.74L833,255.29h5.39l-.81,4.63h-5.4L828.3,282c-.2,1.18.06,2,.79,2.37a4.67,4.67,0,0,0,2.14.34c.28,0,.57,0,.89,0s.69-.05,1.12-.1l-.79,4.51a14.84,14.84,0,0,1-2.11.41,21,21,0,0,1-2.31.12c-2.65,0-4.33-.67-5-2a8.23,8.23,0,0,1-.49-5.28l3.94-22.37h-4.57l.81-4.63h4.58Z" transform="translate(0)"/><path class="cls-5" d="M864.78,256.22a9.83,9.83,0,0,1,4.34,4.37,13.17,13.17,0,0,1,1.21,6,39.62,39.62,0,0,1-.81,7.44H845q-.76,5.16.95,8.27c1.13,2.08,3.28,3.12,6.43,3.12a10.66,10.66,0,0,0,7.56-2.95,12.62,12.62,0,0,0,2.78-4h5.58a14.11,14.11,0,0,1-2.19,4.15,19.66,19.66,0,0,1-3.44,3.74,16.21,16.21,0,0,1-7,3.4,20.06,20.06,0,0,1-4.69.51,11.73,11.73,0,0,1-9.82-4.59q-3.54-4.59-2.09-12.86a23.41,23.41,0,0,1,6.72-13.21,17.28,17.28,0,0,1,12.37-5.08A13.46,13.46,0,0,1,864.78,256.22Zm-.3,13.26a13.44,13.44,0,0,0-.56-5.9q-1.59-4.09-7-4.1a10.17,10.17,0,0,0-7,2.82,13,13,0,0,0-4,7.18Z" transform="translate(0)"/><path class="cls-5" d="M880.17,255.29h5.39l-1,5.83a16.78,16.78,0,0,1,4-4.15,10,10,0,0,1,6.39-2.44l.53,0,1.27.13-1.05,6c-.33-.06-.63-.1-.91-.13s-.59,0-.93,0a9.61,9.61,0,0,0-7.07,2.76,11.63,11.63,0,0,0-3.43,6.36l-3.42,19.43h-5.68Z" transform="translate(0)"/></svg>
